<?xml version="1.0" encoding="UTF-8" standalone="no"?>
<svg
   viewBox="0 0 448 320"
   version="1.1"
   id="svg1"
   sodipodi:docname="x.svg"
   xml:space="preserve"
   width="448"
   height="320"
   inkscape:version="1.4 (e7c3feb100, 2024-10-09)"
   xmlns:inkscape="http://www.inkscape.org/namespaces/inkscape"
   xmlns:sodipodi="http://sodipodi.sourceforge.net/DTD/sodipodi-0.dtd"
   xmlns="http://www.w3.org/2000/svg"
   xmlns:svg="http://www.w3.org/2000/svg"><defs
     id="defs1" /><sodipodi:namedview
     id="namedview1"
     pagecolor="#505050"
     bordercolor="#ffffff"
     borderopacity="1"
     inkscape:showpageshadow="0"
     inkscape:pageopacity="0"
     inkscape:pagecheckerboard="1"
     inkscape:deskcolor="#505050"
     inkscape:zoom="0.95535714"
     inkscape:cx="224"
     inkscape:cy="159.62617"
     inkscape:window-width="1920"
     inkscape:window-height="1002"
     inkscape:window-x="0"
     inkscape:window-y="0"
     inkscape:window-maximized="1"
     inkscape:current-layer="svg1"><inkscape:page
       x="0"
       y="0"
       width="448"
       height="320"
       id="page2"
       margin="0"
       bleed="0" /></sodipodi:namedview><!--! Font Awesome Free 6.7.1 by @fontawesome - https://fontawesome.com License - https://fontawesome.com/license/free (Icons: CC BY 4.0, Fonts: SIL OFL 1.1, Code: MIT License) Copyright 2024 Fonticons, Inc. --><path
     d="m 439.34615,37.510005 c 13.18206,-9.713492 11.0823,-24.140888 -4.78289,-32.2116567 -15.86515,-8.07077 -39.42957,-6.7851609 -52.61166,2.9283324 L 223.99999,124.28864 66.04839,8.2266807 C 52.866311,-1.4868126 29.30189,-2.7724217 13.43673,5.2983483 -2.4284303,13.369117 -4.528226,27.796513 8.6538531,37.510005 L 175.35462,160 8.6538531,282.48999 c -13.1820791,9.71349 -11.0822834,24.14089 4.7828769,32.21166 15.86516,8.07077 39.429581,6.78517 52.61166,-2.92833 L 223.99999,195.71137 381.9516,311.77332 c 13.18209,9.7135 36.74651,10.9991 52.61166,2.92833 15.86519,-8.07077 17.96495,-22.49817 4.78289,-32.21166 L 272.64534,160 Z"
     id="path1-5"
     style="display:inline;stroke-width:0.912788"
     inkscape:export-filename="x.png"
     inkscape:export-xdpi="96"
     inkscape:export-ydpi="96"
     inkscape:label="x" /></svg>
